<?xml version="1.0" encoding="UTF-8"?>
<svg xmlns="http://www.w3.org/2000/svg" viewBox="0 0 1000 700" role="img" aria-labelledby="map-title map-desc">
  <title id="map-title">Same Day Appliance Repair Service Area — Southern California</title>
  <desc id="map-desc">Map of five Southern California counties served by Same Day Appliance Repair: Los Angeles, Orange, Ventura, San Bernardino, and Riverside.</desc>
  <defs>
    <pattern id="grid" width="40" height="40" patternUnits="userSpaceOnUse"><path d="M 40 0 L 0 0 0 40" fill="none" stroke="rgba(212,175,55,0.03)" stroke-width="1"/></pattern>
    <radialGradient id="county-fill" cx="50%" cy="50%" r="80%"><stop offset="0%" stop-color="#1a1a1a"/><stop offset="100%" stop-color="#0a0a0a"/></radialGradient>
  </defs>
  <rect width="1000" height="700" fill="#0a0a0a"/>
  <rect width="1000" height="700" fill="url(#grid)"/>
  <g class="counties">
    <a href="/ventura-county/" aria-label="Ventura County service area"><path d="M160.58 285.95L149 257.94L132.64 258.12L132.59 253.63L86.82 253.65L86.74 244.61L81 240.06L62.92 240.18L59.56 235.73L52.63 235.75L52.81 264.09L53 268.23L53.19 328.61L52.71 338.26L47.36 345.7L50.18 345.56L71.4 362.66L82.1 368.24L92.61 392.61L107.93 402.05L115.57 402.4L139.83 413.11L140.47 407L166.51 387.29L187.39 387.01L187.25 371.98L192.44 361.21L160.58 285.95Z M31.75 575.86L36.72 583.06L50.05 586.66L51.39 577.89L39.59 572.09L31.75 575.86Z" fill="url(#county-fill)" stroke="#D4AF37" stroke-width="1.5" stroke-linejoin="round"><title>Ventura County</title></path></a>
    <a href="/los-angeles-county/" aria-label="Los Angeles County service area"><path d="M139.83 413.11L155.57 415.26L163.52 421.98L176.12 415.28L208.93 413.61L216.39 418.52L225.17 430.02L236.5 454.99L231.25 468.92L253.02 481.31L261.09 468.57L284.79 473.21L284.92 473.09L285.25 472.86L294.08 452.18L308.12 440.09L307.95 431.1L341.44 430.28L339.62 428.78L343.76 414.18L349.3 415.08L358.5 385L363.4 358.41L358.46 302.56L357.06 247.51L344.81 247.65L216.1 251.34L153.58 252.23L148.03 255.61L160.58 285.95L192.44 361.21L187.25 371.98L187.39 387.01L166.51 387.29L140.47 407L139.83 413.11Z M230.93 540.44L219.96 537.76L212.04 530.58L205.86 538.09L221.15 542.57L221.1 555.32L229.57 563.09L241.3 562.62L251.1 557.53L230.93 540.44Z M211.49 628.95L207.49 636.06L220.86 660.25L233.54 670L243.67 662.45L223.07 645.27L211.49 628.95Z" fill="url(#county-fill)" stroke="#D4AF37" stroke-width="1.5" stroke-linejoin="round"><title>Los Angeles County</title></path></a>
    <a href="/orange-county/" aria-label="Orange County service area"><path d="M341.44 430.28L307.95 431.1L308.12 440.09L294.08 452.18L285.25 472.86L304.29 491.42L312.75 497.29L324.75 500.69L342.9 514.31L355.68 530.21L370.13 536.67L376.86 545.91L379.55 531.8L391.47 527.8L391.3 521.91L391.25 520.03L391.02 514.85L407.25 488.4L396.29 479.38L385.93 478.29L385.24 468.47L377.48 466.21L360.6 445.98L360.23 444.95L347.56 435.25L341.44 430.28Z" fill="url(#county-fill)" stroke="#D4AF37" stroke-width="1.5" stroke-linejoin="round"><title>Orange County</title></path></a>
    <a href="/san-bernardino-county/" aria-label="San Bernardino County service area"><path d="M357.06 247.51L358.46 302.56L363.4 358.41L358.5 385L349.3 415.08L343.76 414.18L339.62 428.78L347.56 435.25L360.23 444.95L360.81 445.54L363.72 434.17L371.42 433.98L371.28 424.31L380.2 420.58L379.97 411.22L411.66 410.28L411.72 413.29L437.7 412.7L437.79 415.69L489.05 413.98L488.82 407.91L597.69 404.35L652.32 401.59L768.01 396.49L767.59 387.4L919.78 378.78L922.82 372.78L938.23 365.79L950.04 357.29L964.4 340.25L968.25 329.26L961.01 320.1L952.33 317.17L931.72 300.58L923.55 299.71L923.67 284.73L905.85 247.57L891.31 237.17L883.63 222.12L877.22 217.8L874.7 189.11L779.39 105.38L693.59 30L678.93 33.92L587.34 37.83L524.07 39.76L422.54 43.12L357.87 44.39L359.57 92.95L363.11 247.41L357.06 247.51Z" fill="url(#county-fill)" stroke="#D4AF37" stroke-width="1.5" stroke-linejoin="round"><title>San Bernardino County</title></path></a>
    <a href="/riverside-county/" aria-label="Riverside County service area"><path d="M360.81 445.54L360.6 445.98L377.48 466.21L385.24 468.47L385.93 478.29L396.29 479.38L407.25 488.4L391.02 514.85L391.25 520.03L391.27 520.87L416.62 520.18L415.54 523.22L438.33 531.23L438.46 534.66L482.47 534.32L567.69 531.56L636.17 529.08L644.62 528.71L723.09 525.08L858.81 517.56L894.27 514.87L894.73 510.05L905.13 493.62L910.71 489.21L909.22 461.46L913.85 458.89L906.29 427.84L910.53 423.91L904.43 411.77L919.99 390.67L919.78 378.78L767.59 387.4L768.01 396.49L652.32 401.59L597.69 404.35L488.82 407.91L489.05 413.98L437.79 415.69L437.7 412.7L411.72 413.29L411.66 410.28L379.97 411.22L380.2 420.58L371.28 424.31L371.42 433.98L363.72 434.17L360.81 445.54Z" fill="url(#county-fill)" stroke="#D4AF37" stroke-width="1.5" stroke-linejoin="round"><title>Riverside County</title></path></a>
  </g>
  <g class="county-labels">
    <text x="111.17" y="318.04" text-anchor="middle" fill="#D4AF37" font-family="'Cinzel',serif" font-size="14" font-weight="600" letter-spacing="2.1" pointer-events="none">VENTURA</text>
    <text x="274.86" y="335.91" text-anchor="middle" fill="#D4AF37" font-family="'Cinzel',serif" font-size="14" font-weight="600" letter-spacing="2.1" pointer-events="none">LOS ANGELES</text>
    <text x="330.95" y="466.31" text-anchor="middle" fill="#D4AF37" font-family="'Cinzel',serif" font-size="14" font-weight="600" letter-spacing="2.1" pointer-events="none">ORANGE</text>
    <text x="546.01" y="222.56" text-anchor="middle" fill="#D4AF37" font-family="'Cinzel',serif" font-size="14" font-weight="600" letter-spacing="2.1" pointer-events="none">SAN BERNARDINO</text>
    <text x="842.36" y="450.82" text-anchor="middle" fill="#D4AF37" font-family="'Cinzel',serif" font-size="14" font-weight="600" letter-spacing="2.1" pointer-events="none">RIVERSIDE</text>
  </g>
</svg>
